<?xml version="1.0" encoding="utf-8"?>
<svg viewBox="29.803 -7.814 407.936 530.822" xmlns="http://www.w3.org/2000/svg">
  <path d="M 395.706 103.195 C 388.823 102.019 382.327 102.148 376.241 103.594 C 375.991 94.558 375.569 85.504 374.948 76.453 L 374.948 76.355 C 373.815 62.953 368.303 51.847 358.389 43.023 C 348.178 33.921 336.299 29.82 322.748 30.753 C 312.053 31.468 302.744 35.159 294.81 41.823 C 294.107 36.764 293.392 33.331 292.712 31.546 L 292.618 31.347 C 287.337 17.21 278.227 6.398 265.266 -1.091 L 265.169 -1.185 C 251.157 -9.415 235.95 -9.982 219.56 -2.884 L 219.665 -2.884 C 202.997 3.729 192.892 18.065 189.333 40.132 L 189.333 39.933 C 188.716 43.163 188.263 46.714 187.935 50.609 C 186.466 49.663 184.892 48.796 183.251 48.015 L 183.044 47.917 C 170.974 42.448 158.642 41.812 146.021 46.019 C 145.947 46.058 145.841 46.089 145.728 46.116 C 133.154 50.683 123.869 58.733 117.888 70.264 L 117.888 70.167 C 112.169 80.218 110.142 94.292 111.798 112.374 L 111.701 112.374 C 112.771 125.515 124.705 179.968 147.521 275.734 C 147.056 275.468 146.587 275.206 146.126 274.937 L 146.224 274.937 C 134.521 268.031 121.654 262.742 107.603 259.066 L 107.7 259.164 C 92.012 254.789 75.29 256.32 57.512 263.757 C 36.414 272.382 27.36 288.546 30.364 312.253 L 30.364 312.367 C 32.61 335.195 47.743 349.969 75.766 356.664 C 93.637 360.89 105.477 365.082 111.289 369.238 L 111.395 369.335 C 116.641 373.952 122.227 381.499 128.157 391.991 C 128.188 392.065 128.212 392.128 128.254 392.19 C 136.43 407.186 148.867 418.866 165.574 427.213 L 165.477 427.213 C 170.407 429.745 175.457 431.975 180.645 433.901 C 175.25 442.213 172.825 449.463 173.36 455.655 C 172.551 476.296 184.755 492.788 209.977 505.151 L 209.879 505.046 C 227.067 513.745 246.125 519.405 267.063 522.015 L 267.168 522.015 C 288.313 524.554 309.543 522.222 330.828 515.034 L 330.934 514.929 C 356.036 506.882 369.125 486.648 370.141 454.261 C 370.215 452.538 369.981 450.952 369.45 449.464 C 417.798 421.991 431.602 366.976 410.872 284.404 C 424.411 242.814 433.29 199.939 437.509 155.774 L 437.509 155.68 C 438.708 143.172 435.212 131.797 427.025 121.551 C 418.794 111.301 408.357 105.176 395.705 103.192 L 395.706 103.195 Z M 383.436 279.425 C 382.576 282.039 382.51 284.671 383.225 287.308 C 404.463 368.441 386.916 417.898 330.541 435.698 C 326.908 436.768 324.181 438.96 322.357 442.288 C 320.541 445.636 320.173 449.132 321.255 452.772 C 322.314 456.401 324.509 459.123 327.849 460.948 C 331.189 462.772 334.689 463.139 338.322 462.057 C 339.561 461.709 340.787 461.342 342.018 460.948 C 339.951 475.155 333.275 484.507 321.959 488.999 L 322.064 488.893 C 304.81 494.729 287.611 496.667 270.47 494.686 C 252.829 492.503 236.751 487.784 222.271 480.518 L 222.166 480.413 C 208.795 473.866 201.701 465.624 200.904 455.659 C 201.595 452.12 204.388 447.397 209.298 441.491 C 211.321 441.838 213.349 442.139 215.376 442.393 C 219.142 442.858 222.532 441.928 225.564 439.6 C 228.556 437.252 230.287 434.194 230.752 430.416 C 231.232 426.651 230.291 423.26 227.959 420.244 C 225.611 417.244 222.552 415.514 218.779 415.049 C 204.181 413.256 190.611 409.139 178.068 402.678 L 177.963 402.678 C 166.533 396.967 157.979 389.014 152.315 378.815 L 152.221 378.628 C 144.119 364.269 136.33 354.101 128.869 348.089 L 128.771 347.983 C 121.506 341.55 105.959 335.534 82.162 329.924 C 67.908 326.522 59.748 319.502 57.717 308.869 L 57.717 308.771 C 56.491 299.271 59.944 292.716 68.104 289.107 C 79.604 284.311 90.413 283.166 100.542 285.717 L 100.636 285.822 C 112.136 288.803 122.683 293.088 132.269 298.689 L 132.367 298.689 C 144.176 305.576 154.617 309.806 163.703 311.365 C 163.976 311.451 164.238 311.514 164.492 311.565 C 165.007 311.658 165.55 311.721 166.089 311.756 C 170.484 312.072 178.702 311.932 190.734 311.365 L 190.934 311.365 C 200.402 311.018 212.278 313.94 226.563 320.147 L 226.563 320.244 C 240.54 326.565 251.868 338.642 260.598 356.471 C 262.266 359.874 264.887 362.202 268.48 363.46 C 272.047 364.717 275.551 364.518 278.953 362.862 C 282.375 361.182 284.703 358.557 285.946 354.967 C 287.196 351.413 286.996 347.917 285.34 344.494 C 273.281 319.74 257.363 303.209 237.535 294.889 L 237.535 294.995 C 218.39 286.6 202.387 282.882 189.543 283.815 L 189.344 283.815 C 184.918 284.022 181.086 284.159 177.871 284.213 C 153.324 181.553 140.449 123.463 139.25 109.983 L 139.144 109.983 C 138.144 98.526 139.168 89.581 142.242 83.135 L 142.242 83.038 C 144.992 77.885 149.172 74.264 154.812 72.163 C 154.918 72.131 155.011 72.092 155.109 72.065 C 160.683 70.28 166.14 70.584 171.48 72.959 C 171.55 72.999 171.617 73.03 171.687 73.065 C 176.585 75.44 179.968 79.163 181.867 84.233 L 181.769 84.139 C 184.758 92.385 187.48 100.701 189.945 109.084 C 190.008 109.338 190.074 109.6 190.152 109.881 C 190.613 111.182 191.703 114.811 193.437 120.764 C 193.488 121.057 193.555 121.362 193.644 121.659 C 202.043 150.456 209.859 188.878 217.097 236.909 C 217.652 240.69 219.445 243.717 222.484 245.995 C 225.57 248.241 228.992 249.073 232.761 248.491 C 236.495 247.944 239.495 246.139 241.745 243.104 C 243.984 240.049 244.812 236.651 244.234 232.924 C 236.867 183.533 228.89 143.979 220.285 114.284 C 215.218 83.085 213.945 59.897 216.496 44.725 L 216.496 44.526 C 218.257 33.577 222.91 26.225 230.465 22.467 L 230.57 22.467 C 238.129 19.193 245.144 19.287 251.625 22.764 L 251.5 22.674 C 258.711 26.853 263.812 32.877 266.77 40.736 C 269.962 50.779 274.274 113.588 279.75 229.136 C 279.738 229.296 279.738 229.464 279.75 229.632 C 279.906 233.339 281.367 236.464 284.145 239.007 C 286.914 241.589 290.18 242.815 293.918 242.702 C 297.676 242.573 300.879 241.147 303.492 238.409 C 306.094 235.698 307.352 232.46 307.289 228.726 L 307.289 228.229 C 305.828 135.358 304.961 86.459 304.688 81.529 L 304.688 81.33 C 304.27 75.42 305.918 70.228 309.672 65.764 L 309.777 65.667 C 313.742 61.163 318.668 58.698 324.554 58.28 C 330.429 57.874 335.585 59.643 340.023 63.569 C 344.434 67.503 346.898 72.46 347.402 78.432 C 348.055 87.78 348.535 97.131 348.808 106.475 C 348.926 113.1 349 119.92 349 126.932 C 348.945 127.58 348.945 128.252 349 128.928 C 348.957 162.733 346.594 201.541 341.918 245.378 C 341.512 249.144 342.516 252.503 344.906 255.464 C 347.277 258.437 350.34 260.136 354.086 260.554 C 357.844 260.952 361.211 259.956 364.164 257.562 C 367.133 255.191 368.836 252.128 369.246 248.378 C 373.851 205.401 376.277 167.108 376.531 133.518 C 376.625 133.463 376.723 133.393 376.836 133.311 C 381.015 130.393 385.808 129.405 391.211 130.319 L 391.316 130.327 C 397.027 131.268 401.75 134.065 405.484 138.713 C 408.988 143.081 410.551 147.905 410.176 153.186 C 406 196.561 397.082 238.635 383.438 279.416 L 383.436 279.425 Z"/>
</svg>