<?xml version="1.0" encoding="utf-8"?>
<svg viewBox="147.878 47.592 411.823 460.372" xmlns="http://www.w3.org/2000/svg">
  <path d="m544.3 203.07c-10.789-12.465-23.742-18.617-38.844-18.461h-1.1953c-2.1602-15.773-7.9883-30.277-17.504-43.531l-0.125-0.125c-14.957-20.227-32.984-30.141-54.07-29.73-5.0469 0.011719-9.9688 0.57422-14.754 1.6797-1.1953-1.8398-2.4766-3.8008-3.8281-5.875-0.21875-0.24219-0.41016-0.48438-0.60547-0.72266-9.3398-13.352-24.285-20.031-44.852-20.023-11.469-0.47266-23.141 3.5664-35.008 12.109-2.3516-4.082-4.9453-7.9961-7.7891-11.746-1.3672-1.9531-3.1289-4.1875-5.2773-6.7188-0.79688-0.92188-1.6797-1.7617-2.6445-2.5195-0.23828-0.17969-0.51563-0.37891-0.83984-0.60547-18.148-19.836-36.188-29.555-54.066-29.133-18.512-1.0391-36.457 8.5117-53.848 28.652l-0.11328 0.125c-29.52 32.965-35.355 74.809-17.504 125.54-1.2266 1.125-2.4648 2.2852-3.7227 3.4766h0.125c-26.91 25.797-40.227 54.176-39.934 85.133-0.58984 21.859 10.434 46.723 33.098 74.578l0.125 0.125c12.75 16.508 32.484 30.332 59.23 41.484-3.5898 6.7266-5.2266 13.477-4.9141 20.266-0.97656 24.797 13.684 44.621 44.012 59.477l-0.125-0.125c20.812 10.445 43.719 17.242 68.707 20.379h0.11328c25.406 3.0352 50.984 0.24219 76.738-8.3945l0.125-0.125c28.062-8.9844 43.598-30.613 46.641-64.867 6.875-3.5039 14.074-8.0625 21.586-13.672l0.125-0.11719c27.535-19.301 37.488-51.75 29.855-97.359 3.8008-3.3398 7.6406-7.1797 11.516-11.516h0.125c17.074-19.035 25.344-38.812 24.82-59.355v-0.23828c-0.41016-21.023-5.4492-36.973-15.113-47.844-0.11719-0.042969-0.19141-0.125-0.26562-0.21875zm-128.53 44.004c0.13672-0.23828 0.29688-0.47266 0.48047-0.71484 0.95312-1.5977 1.9219-3.1992 2.875-4.7969 7.1914-11.945 12.27-24.535 15.227-37.77 2.1719-9.6367 3.2461-19.551 3.2344-29.734-0.007813-10.355-1.4062-20.266-4.1953-29.734 10.172 0.68359 19.008 6.0781 26.5 16.184l0.125 0.125c8.082 11.324 12.121 24.031 12.109 38.129-0.007812 16.727-4.4102 32.316-13.184 46.762l0.11328-0.125c-9.1406 14.691-20.926 22.25-35.375 22.66-5.793 0.007812-10.105-1.8281-12.941-5.5117v-0.24219c-1.0312-1.6133-1.8398-3.4102-2.4023-5.3945 2.5547-2.9922 5.0391-6.2695 7.4336-9.8359zm-70.742-46.039c0.19922-0.66406 0.35547-1.3008 0.48047-1.9219 0.31641-1.7539 0.63281-3.5156 0.95313-5.2773l-0.23828 0.83984c3.1172-13.09 4.2383-26.289 3.3555-39.566v-0.11719c-0.46094-7.9531-1.6133-15.902-3.4766-23.863 7.8203-7.2539 15.293-11.168 22.418-11.754 7.8164 0.011719 13.762 2.0469 17.871 6.1172l0.35938 0.35938c0.074219 0.125 0.15625 0.23828 0.24219 0.35938 1.4297 2.2266 2.8359 4.3047 4.1992 6.2344v0.11719c1.5547 2.1914 2.9609 4.2305 4.1953 6.1172 0.097656 0.19922 0.21875 0.39844 0.35938 0.59766 0.36719 0.94141 0.84766 1.8555 1.4375 2.7578 0.19922 0.64844 0.42969 1.2891 0.71484 1.918 4.4102 9.3203 6.6133 19.352 6.5938 30.098-0.011719 7.7227-0.85156 15.23-2.5078 22.543-2.1641 9.7812-5.8789 19.102-11.156 27.938-0.95703 1.5938-1.9219 3.1914-2.8828 4.7969-2.9805 4.2578-6.1797 7.8516-9.5898 10.789h0.125c-7.125 5.9844-15.23 8.9844-24.348 8.9922-6.1523 0-10.707-2.0859-13.664-6.2344h-0.125c-2.9727-5.3516-4.4492-12.312-4.4297-20.863 3.6016-6.0156 6.6367-13.012 9.1133-20.977zm-111.04-102.88 0.125-0.11719c9.4453-10.965 18.879-16.727 28.285-17.266 9.8633 0.89062 20.129 7.25 30.82 19.066 0.52344 0.54297 1.0898 1.0586 1.6797 1.5547 0.51562 0.42188 0.99609 0.82812 1.4453 1.1953 0.88281 1.0938 1.6367 2.0898 2.2773 3 0.16797 0.19922 0.32812 0.39844 0.48047 0.59766 4.7969 6.2422 8.6367 13.16 11.516 20.746 0.72656 2.5078 1.4492 5.0664 2.1523 7.6797 2.0703 7.4727 3.3047 14.945 3.7227 22.418v0.11719c0.71094 10.023-0.09375 19.973-2.4023 29.859-0.082031 0.28125-0.15625 0.55859-0.23828 0.83984-0.26562 1.4453-0.54297 2.8828-0.83984 4.3164-0.46094 1.4375-0.93359 2.8359-1.4453 4.1953-3.0352-5.5117-7.2305-10.309-12.586-14.387-0.125-0.070312-0.24219-0.14453-0.35547-0.25-7.082-5.3203-15.598-8.7539-25.535-10.309 1.3672-3.293 3.4453-8.0898 6.2266-14.391 1.8711-4.2109 1.9922-8.4492 0.36719-12.707-1.6602-4.2305-4.5742-7.2656-8.7617-9.1094-4.207-1.8789-8.4375-1.9961-12.711-0.35938-4.2266 1.668-7.2617 4.5781-9.1016 8.7539-6.4883 14.617-9.9297 23.445-10.316 26.496-0.0625 0.51562-0.097656 1.0391-0.125 1.5547-0.054687 0.61719-0.09375 1.2188-0.125 1.7969-0.28516 0.085937-0.57422 0.16016-0.83203 0.24219-0.1875 0.039063-0.38672 0.082032-0.59766 0.125-5.7109 1.7656-11.469 4.2891-17.273 7.5547-9.2266-33.133-4.5156-60.871 14.148-83.215zm239.56 294.96-0.125 0.125c-16.91 12.531-30.496 16.844-40.77 12.953-4.043-2.1484-8.2461-2.5508-12.586-1.1992-4.375 1.332-7.6484 4.0078-9.8242 8.0312-2.1484 4.0312-2.543 8.2305-1.1953 12.586 1.3359 4.3672 4.0195 7.6484 8.0273 9.832 5.9844 3.7227 12.457 5.8789 19.426 6.4727-3.6641 12.34-11.09 20.734-22.309 25.18l0.125-0.11719c-20.883 7.0195-41.621 9.332-62.223 6.957h-0.125c-21.012-2.6328-40.277-8.3125-57.797-17.031l-0.11328-0.11719c-16.07-7.8633-24.59-17.77-25.543-29.734 0.39062-2.9258 1.75-5.918 4.0742-8.9922 8.4141 2.4258 17.277 4.668 26.617 6.7148 4.4492 0.95703 8.6133 0.19922 12.469-2.2773 3.8828-2.4531 6.3164-5.8867 7.3164-10.309 0.96484-4.457 0.20703-8.6133-2.2773-12.469-2.457-3.8711-5.8789-6.3086-10.316-7.3125-48.426-10.602-81.598-26.551-99.52-47.844l-0.125-0.125c-16.59-20.371-25.188-38.324-25.777-53.836 0.33594-22.121 10.246-42.504 29.742-61.152 3.3984-3.2773 6.8008-6.2422 10.191-8.8711 0.11328-0.082032 0.23828-0.15625 0.35547-0.24219 0.46484-0.32812 0.91016-0.69141 1.3203-1.082 8.3828-6.5703 16.582-11.164 24.578-13.789l-0.59766 0.125c2.7695-0.78516 5.5234-1.3828 8.2695-1.7969 0.21875 0.011719 0.41016 0.011719 0.60547 0 1.5-0.13672 3.0547-0.22266 4.6719-0.24219 7.6914 0.007812 14.051 1.6875 19.059 5.0391l-0.23828-0.24219c3.7969 2.8867 5.5938 6.9609 5.3945 12.227 0.03125 2.4062-0.25391 4.7305-0.83984 6.957l-0.125 0.35938v0.125c-1.6797 4.9414-4.7227 9.5742-9.1016 13.906l0.007813 0.11328c-10.547 10.645-18.105 18.406-22.672 23.266-1.5742 0.67969-3.043 1.6367-4.4297 2.875-3.1484 2.8438-4.9453 6.3516-5.3945 10.555-0.46484 4.2188 0.52344 8.0508 3 11.512 2.5078 3.4297 5.832 5.5859 9.9492 6.4766 5.9102 1.7305 13.938 0.80859 24.105-2.7578l0.24219-0.125c4.8047-1.7617 8.3203-2.7578 10.547-3 10.305 0.31641 20.977 4.543 32.02 12.711l0.11328 0.125c10.105 7.6953 15.992 15.656 17.629 23.863 0.60547 4.5 2.7266 8.1328 6.3516 10.914 3.6328 2.8047 7.7109 3.9336 12.234 3.3555 4.5-0.60547 8.1328-2.7188 10.914-6.3516 2.8008-3.6328 3.9258-7.7109 3.3555-12.238-1.3672-14.586-9.6367-28.367-24.812-41.367 2.1641 0.24219 4.3984 0.36719 6.707 0.36719 9.5078 0 18.418-1.7109 26.742-5.1602 0.67188 1.1836 1.3984 2.3398 2.1602 3.4844 8.3672 13.746 21.91 20.613 40.645 20.621 1.8281 0.023437 3.6289-0.011719 5.3945-0.125 1.4258 10.523 6.7773 19.477 16.07 26.855l0.11719 0.11719c9.4258 7.832 21.328 11.746 35.734 11.754 3.5977 0.054688 7.1914-0.30469 10.789-1.0781 1.918 24.531-4.1602 42.68-18.234 54.43zm53.008-141.25c-0.27344 12.633-5.7539 24.895-16.434 36.816h0.125c-4.8047 5.2656-9.5273 9.457-14.145 12.586l-0.36719 0.23828c-0.30469 0.20703-0.58594 0.40625-0.83984 0.60547-4.6719 2.8945-9.3086 4.4102-13.906 4.5547-5.9922 0.007813-11-1.4688-14.984-4.4414l-0.125-0.11719c-2.5586-2.0156-3.9219-4.5-4.0742-7.4375-0.011719-0.74609-0.011719-1.3516 0-1.7969 0.10547-0.26562 0.22266-0.54687 0.35547-0.83984 0.48047-0.94141 0.87891-1.9023 1.1992-2.8828 8.8398-6.2656 16.758-15.02 23.742-26.25l0.11328-0.125c8.4062-13.844 13.883-28.473 16.434-43.887 0.56641-0.37891 1.1211-0.81641 1.6797-1.3203l0.125 0.11719c5.2578 0.15625 9.8047 2.3945 13.664 6.7188 4.6992 6.3477 7.1758 15.418 7.4414 27.215v0.24609z"/>
</svg>